<mxfile host="app.diagrams.net" modified="2024-01-15T10:04:18.398Z" agent="Mozilla/5.0 (Macintosh; Intel Mac OS X 10_15_7) AppleWebKit/537.36 (KHTML, like Gecko) Chrome/120.0.0.0 Safari/537.36" etag="2ORX9QXc9NQscZt5un2w" version="22.1.18" type="github">
  <diagram name="第 1 页" id="_KGyoC1ufbTMsVG9WjTH">
    <mxGraphModel dx="1039" dy="603" grid="1" gridSize="10" guides="1" tooltips="1" connect="1" arrows="1" fold="1" page="1" pageScale="1" pageWidth="827" pageHeight="1169" math="0" shadow="0">
      <root>
        <mxCell id="0" />
        <mxCell id="1" parent="0" />
        <mxCell id="uBipdBVokxf97rr1Bi9E-4" value="Labels" style="rounded=0;whiteSpace=wrap;html=1;fillColor=#FFFFFF;" vertex="1" parent="1">
          <mxGeometry x="170" y="230" width="90" height="30" as="geometry" />
        </mxCell>
        <mxCell id="uBipdBVokxf97rr1Bi9E-5" value="Treatment" style="rounded=0;whiteSpace=wrap;html=1;fillColor=#FFFFFF;" vertex="1" parent="1">
          <mxGeometry x="170" y="285" width="90" height="30" as="geometry" />
        </mxCell>
        <mxCell id="uBipdBVokxf97rr1Bi9E-6" value="Features" style="rounded=0;whiteSpace=wrap;html=1;fillColor=#FFFFFF;" vertex="1" parent="1">
          <mxGeometry x="170" y="345" width="90" height="30" as="geometry" />
        </mxCell>
        <mxCell id="uBipdBVokxf97rr1Bi9E-12" style="edgeStyle=orthogonalEdgeStyle;rounded=0;orthogonalLoop=1;jettySize=auto;html=1;exitX=1;exitY=0;exitDx=0;exitDy=30;exitPerimeter=0;entryX=0;entryY=0.5;entryDx=0;entryDy=0;" edge="1" parent="1" source="uBipdBVokxf97rr1Bi9E-8" target="uBipdBVokxf97rr1Bi9E-5">
          <mxGeometry relative="1" as="geometry" />
        </mxCell>
        <mxCell id="uBipdBVokxf97rr1Bi9E-8" value="&lt;span style=&quot;font-size: 10px;&quot;&gt;Report&lt;/span&gt;" style="shape=cylinder3;whiteSpace=wrap;html=1;boundedLbl=1;backgroundOutline=1;size=15;fillColor=#CCCCCC;fontStyle=1" vertex="1" parent="1">
          <mxGeometry x="80" y="270" width="50" height="50" as="geometry" />
        </mxCell>
        <mxCell id="uBipdBVokxf97rr1Bi9E-13" style="edgeStyle=orthogonalEdgeStyle;rounded=0;orthogonalLoop=1;jettySize=auto;html=1;exitX=1;exitY=0;exitDx=0;exitDy=30;exitPerimeter=0;entryX=0;entryY=0.5;entryDx=0;entryDy=0;" edge="1" parent="1" source="uBipdBVokxf97rr1Bi9E-10" target="uBipdBVokxf97rr1Bi9E-6">
          <mxGeometry relative="1" as="geometry" />
        </mxCell>
        <mxCell id="uBipdBVokxf97rr1Bi9E-10" value="&lt;span style=&quot;font-size: 10px;&quot;&gt;Report&lt;/span&gt;" style="shape=cylinder3;whiteSpace=wrap;html=1;boundedLbl=1;backgroundOutline=1;size=15;fillColor=#CCCCCC;fontStyle=1" vertex="1" parent="1">
          <mxGeometry x="80" y="330" width="50" height="50" as="geometry" />
        </mxCell>
      </root>
    </mxGraphModel>
  </diagram>
</mxfile>
